<svg xmlns="http://www.w3.org/2000/svg" xmlns:xlink="http://www.w3.org/1999/xlink" width="1440" height="672" viewBox="0 0 1440 672">
    <defs>
        <filter id="m9v4oxdi9d" width="111.3%" height="111.4%" x="-5.7%" y="-5.7%" filterUnits="objectBoundingBox">
            <feMorphology in="SourceAlpha" operator="dilate" radius="5" result="shadowSpreadOuter1"/>
            <feOffset in="shadowSpreadOuter1" result="shadowOffsetOuter1"/>
            <feMorphology in="SourceAlpha" radius="5" result="shadowInner"/>
            <feOffset in="shadowInner" result="shadowInner"/>
            <feComposite in="shadowOffsetOuter1" in2="shadowInner" operator="out" result="shadowOffsetOuter1"/>
            <feGaussianBlur in="shadowOffsetOuter1" result="shadowBlurOuter1" stdDeviation="12"/>
            <feColorMatrix in="shadowBlurOuter1" values="0 0 0 0 0 0 0 0 0 0.76894635 0 0 0 0 0.533367455 0 0 0 0.54 0"/>
        </filter>
        <filter id="zsh4c535qf" width="144.8%" height="145.1%" x="-22.4%" y="-22.5%" filterUnits="objectBoundingBox">
            <feGaussianBlur in="SourceGraphic" stdDeviation="50"/>
        </filter>
        <filter id="a0a7j06adg" width="108.6%" height="108.6%" x="-4.3%" y="-4.3%" filterUnits="objectBoundingBox">
            <feGaussianBlur in="SourceGraphic" stdDeviation="7.35397124 6.77636385"/>
        </filter>
        <filter id="u9l6roin7h" width="108.6%" height="108.6%" x="-4.3%" y="-4.3%" filterUnits="objectBoundingBox">
            <feGaussianBlur in="SourceGraphic" stdDeviation="4.74954817 8.80010183"/>
        </filter>
        <path id="vsskkwt8za" d="M0 0H1441V672H0z"/>
        <path id="subqhlzpfe" d="M244.99 210.154c3.512-47.784 43.256-69.815 74.962-72.078 13.855-.988 28.17-.197 41.85 2.22 18.334 3.25 32.387 14.564 44.2 28.822 38.512 46.353 77.069 92.684 115.779 138.861 62.885 75.066 125.88 150.022 188.874 225 53.597 63.84 107.282 127.57 160.901 191.365 2.481 2.988 4.984 5.822 9.376 4.13 4.26-1.648 3.93-5.47 3.93-9.029 0-138.093.022-276.141-.154-414.212 0-3.097-1.383-7.425-3.645-9.073-3.513-2.57-6.806.813-9.683 3.295-49.71 43.366-99.443 86.71-149.198 130.03-8.058 7.03-15.435 8.26-22.79 3.977-7.993-4.657-11.199-14.235-6.28-22.056 7.004-11.05 14.93-21.485 22.374-32.294 5.95-8.611 11.747-17.355 17.61-26.054 40.554-60.127 80.999-120.364 121.707-180.404 19.564-28.844 53.18-40.663 88.75-31.876 29.971 7.382 54.937 36.38 58.691 68.322.527 4.591.637 9.248.637 13.862.044 194.463-.022 388.926.11 583.39 0 23.088-6.346 43.387-22.638 60.17-11.22 11.512-24.57 19.289-40.335 22.496-16.731 3.45-33.638 3.405-50.391.55-19.147-3.296-34.583-13.401-46.988-28.208-41.17-49.253-82.23-98.571-123.465-147.736-50.698-60.457-101.507-120.782-152.25-181.173-12.01-14.28-23.889-28.712-35.9-43.014-51.884-61.775-103.812-123.506-155.696-185.28-2.372-2.834-4.81-5.536-8.98-3.845-3.843 1.582-4.041 4.9-4.041 8.458.044 138.246 0 276.493.198 414.74 0 2.877 1.69 7.38 3.754 8.215 2.196.88 6.412-.988 8.673-2.921 49.36-42.4 98.565-85.018 147.837-127.526 2.261-1.955 4.852-3.537 7.334-5.229 6.96-4.679 14.842-4.042 20.925 1.736 5.928 5.602 7.18 13.115 2.612 20.364-6.148 9.798-12.735 19.289-19.212 28.867-47.515 69.947-94.986 139.938-142.61 209.819-18.29 26.845-50.985 39.213-83.898 32.25-30.74-6.503-55.596-32.03-61.502-63.182-.461-2.416-.966-4.833-1.427-7.271-2.341-373.795-2.341-576.621 0-608.478z"/>
        <linearGradient id="l8nemqh9hb" x1="50%" x2="50%" y1="0%" y2="100%">
            <stop offset="0%"/>
            <stop offset="100%" stop-color="#1D1D1D"/>
        </linearGradient>
    </defs>
    <g fill="none" fill-rule="evenodd">
        <g>
            <g>
                <g transform="translate(-1)">
                    <mask id="vsjy58gvcc" fill="#fff">
                        <use xlink:href="#vsskkwt8za"/>
                    </mask>
                    <use fill="url(#l8nemqh9hb)" xlink:href="#vsskkwt8za"/>
                    <g mask="url(#vsjy58gvcc)">
                        <g>
                            <g transform="translate(580 22.082) rotate(29 623.113 514.661)">
                                <use fill="#000" filter="url(#m9v4oxdi9d)" xlink:href="#subqhlzpfe"/>
                                <use stroke="#00C08B" stroke-width="6" xlink:href="#subqhlzpfe"/>
                            </g>
                            <path stroke="#00C08B" stroke-width="40" d="M244.99 210.154c3.512-47.784 43.256-69.815 74.962-72.078 13.855-.988 28.17-.197 41.85 2.22 18.334 3.25 32.387 14.564 44.2 28.822 38.512 46.353 77.069 92.684 115.779 138.861 62.885 75.066 125.88 150.022 188.874 225 53.597 63.84 107.282 127.57 160.901 191.365 2.481 2.988 4.984 5.822 9.376 4.13 4.26-1.648 3.93-5.47 3.93-9.029 0-138.093.022-276.141-.154-414.212 0-3.097-1.383-7.425-3.645-9.073-3.513-2.57-6.806.813-9.683 3.295-49.71 43.366-99.443 86.71-149.198 130.03-8.058 7.03-15.435 8.26-22.79 3.977-7.993-4.657-11.199-14.235-6.28-22.056 7.004-11.05 14.93-21.485 22.374-32.294 5.95-8.611 11.747-17.355 17.61-26.054 40.554-60.127 80.999-120.364 121.707-180.404 19.564-28.844 53.18-40.663 88.75-31.876 29.971 7.382 54.937 36.38 58.691 68.322.527 4.591.637 9.248.637 13.862.044 194.463-.022 388.926.11 583.39 0 23.088-6.346 43.387-22.638 60.17-11.22 11.512-24.57 19.289-40.335 22.496-16.731 3.45-33.638 3.405-50.391.55-19.147-3.296-34.583-13.401-46.988-28.208-41.17-49.253-82.23-98.571-123.465-147.736-50.698-60.457-101.507-120.782-152.25-181.173-12.01-14.28-23.889-28.712-35.9-43.014-51.884-61.775-103.812-123.506-155.696-185.28-2.372-2.834-4.81-5.536-8.98-3.845-3.843 1.582-4.041 4.9-4.041 8.458.044 138.246 0 276.493.198 414.74 0 2.877 1.69 7.38 3.754 8.215 2.196.88 6.412-.988 8.673-2.921 49.36-42.4 98.565-85.018 147.837-127.526 2.261-1.955 4.852-3.537 7.334-5.229 6.96-4.679 14.842-4.042 20.925 1.736 5.928 5.602 7.18 13.115 2.612 20.364-6.148 9.798-12.735 19.289-19.212 28.867-47.515 69.947-94.986 139.938-142.61 209.819-18.29 26.845-50.985 39.213-83.898 32.25-30.74-6.503-55.596-32.03-61.502-63.182-.461-2.416-.966-4.833-1.427-7.271-2.341-373.795-2.341-576.621 0-608.478z" filter="url(#zsh4c535qf)" opacity=".24" transform="translate(580 22.082) rotate(29 623.113 514.661)"/>
                            <path stroke="#00C08B" stroke-width="6" d="M162.16 213.577c.727-9.902 3.638-17.118 7.188-24.873 13.46-29.453 36.788-46.146 69.023-48.448 14.086-1.006 28.64-.201 42.547 2.257 18.64 3.307 32.927 14.816 44.937 29.32 39.154 47.152 78.354 94.282 117.71 141.255 63.932 76.36 127.977 152.608 192.022 228.879 54.49 64.94 109.07 129.769 163.583 194.665 2.523 3.039 5.068 5.922 9.532 4.201 4.331-1.676 3.996-5.564 3.996-9.185 0-140.473.023-280.902-.156-421.353 0-3.151-1.406-7.554-3.706-9.23-3.571-2.614-6.92.827-9.844 3.352-50.54 44.114-101.101 88.204-151.685 132.273-8.193 7.15-15.693 8.402-23.172 4.044-8.125-4.737-11.384-14.48-6.384-22.436 7.121-11.24 15.18-21.855 22.747-32.85 6.05-8.76 11.943-17.654 17.903-26.504 41.23-61.164 82.35-122.44 123.737-183.514 19.89-29.341 54.066-41.364 90.23-32.425 30.47 7.508 55.852 37.006 59.67 69.499.535 4.67.647 9.408.647 14.101.044 197.816-.023 395.632.111 593.448 0 23.487-6.451 44.136-23.015 61.209-11.407 11.71-24.98 19.62-41.007 22.883-17.01 3.509-34.2 3.464-51.232.559-19.465-3.352-35.159-13.632-47.771-28.694-41.856-50.102-83.6-100.27-125.523-150.284C592.704 664.227 541.05 602.862 489.46 541.43c-12.21-14.525-24.287-29.207-36.498-43.755C400.212 434.835 347.42 372.04 294.67 309.2c-2.41-2.883-4.888-5.632-9.13-3.911-3.906 1.609-4.107 4.983-4.107 8.604.044 140.63 0 281.26.2 421.89 0 2.927 1.72 7.508 3.818 8.357 2.232.894 6.518-1.005 8.818-2.972 50.182-43.13 100.208-86.483 150.3-129.724 2.3-1.99 4.934-3.598 7.457-5.319 7.076-4.76 15.09-4.112 21.273 1.765 6.028 5.699 7.3 13.342 2.657 20.716-6.25 9.967-12.947 19.62-19.533 29.364-48.307 71.153-96.57 142.35-144.988 213.437-18.595 27.308-51.834 39.89-85.296 32.805-31.253-6.614-56.522-32.582-62.527-64.27-.469-2.458-.982-4.916-1.451-7.397-.485-406.045-.485-612.367 0-618.968z" filter="url(#a0a7j06adg)" opacity=".433" transform="translate(580 22.082) rotate(21 547.296 523.334)"/>
                            <path stroke="#00C08B" stroke-width="6" d="M87.364 232.577c.727-9.902 3.638-17.118 7.188-24.873 13.46-29.453 36.788-46.146 69.022-48.448 14.086-1.006 28.641-.201 42.548 2.257 18.64 3.307 32.927 14.816 44.937 29.32 39.154 47.152 78.353 94.282 117.709 141.255 63.933 76.36 127.978 152.608 192.023 228.879 54.49 64.94 109.07 129.769 163.583 194.665 2.523 3.039 5.068 5.922 9.532 4.201 4.33-1.676 3.996-5.564 3.996-9.185 0-140.473.022-280.902-.156-421.353 0-3.151-1.407-7.554-3.706-9.23-3.572-2.614-6.92.827-9.844 3.352-50.54 44.114-101.101 88.204-151.686 132.273-8.192 7.15-15.693 8.402-23.17 4.044-8.126-4.737-11.386-14.48-6.385-22.436 7.12-11.24 15.18-21.855 22.747-32.85 6.05-8.76 11.943-17.654 17.903-26.504 41.23-61.164 82.35-122.44 123.737-183.514 19.89-29.341 54.066-41.364 90.23-32.425 30.47 7.508 55.852 37.006 59.669 69.499.536 4.67.647 9.408.647 14.101.045 197.816-.022 395.632.112 593.448 0 23.487-6.451 44.136-23.015 61.209-11.407 11.71-24.98 19.62-41.008 22.883-17.01 3.509-34.198 3.464-51.23.559-19.467-3.352-35.16-13.632-47.772-28.694-41.856-50.102-83.6-100.27-125.523-150.284-51.544-61.499-103.2-122.864-154.788-184.296-12.21-14.525-24.287-29.207-36.498-43.755-52.75-62.84-105.543-125.635-158.293-188.475-2.41-2.883-4.889-5.632-9.13-3.911-3.906 1.609-4.107 4.983-4.107 8.604.044 140.63 0 281.26.2 421.89 0 2.927 1.72 7.508 3.818 8.357 2.232.894 6.518-1.005 8.817-2.972 50.183-43.13 100.209-86.483 150.302-129.724 2.299-1.99 4.933-3.598 7.455-5.319 7.077-4.76 15.09-4.112 21.274 1.765 6.028 5.699 7.3 13.342 2.657 20.716-6.25 9.967-12.948 19.62-19.533 29.364-48.307 71.153-96.57 142.35-144.988 213.437-18.595 27.308-51.834 39.89-85.297 32.805-31.252-6.614-56.522-32.582-62.526-64.27-.47-2.458-.983-4.916-1.451-7.397-.485-406.045-.485-612.367 0-618.968z" filter="url(#u9l6roin7h)" opacity=".24" transform="translate(580 22.082) rotate(15 472.5 542.334)"/>
                        </g>
                    </g>
                </g>
            </g>
        </g>
    </g>
</svg>
