<svg xmlns="http://www.w3.org/2000/svg" width="182" height="36" viewBox="0 0 182 36">
    <g fill="none" fill-rule="evenodd">
        <g>
            <g>
                <g fill="#000">
                    <path d="M2.908 16.556V5.44h.155l4.522 11.217c.06.15.208.25.37.25h1.633c.164 0 .31-.099.371-.25l4.522-11.193h.155v11.092c0 .22.18.4.4.4h2.108c.22 0 .4-.18.4-.4V.229c-1.194-.023-2.164.18-2.908.61-.744.428-1.393 1.159-1.948 2.19L8.87 12.35h-.196L4.836 2.981C4.376 1.9 3.784 1.185 3.063.838 2.34.491 1.32.288 0 .228v16.328c0 .22.18.4.4.4h2.108c.22 0 .4-.18.4-.4zm25.134.653c1.361 0 2.55-.254 3.569-.764 1.018-.509 1.81-1.218 2.373-2.127.563-.91.845-1.963.845-3.161V.229c-1.192.064-2 .288-2.423.672-.424.383-.627 1.074-.607 2.07v7.933c0 .697-.153 1.317-.458 1.862-.304.544-.739.97-1.302 1.278-.564.308-1.23.462-1.997.462-.768 0-1.432-.154-1.993-.462-.561-.307-.995-.734-1.303-1.278-.308-.545-.461-1.165-.461-1.862V2.94c-.05-.892-.299-1.572-.748-2.04-.45-.467-1.21-.691-2.283-.671v10.928c0 1.198.28 2.251.842 3.16.56.91 1.35 1.62 2.368 2.128 1.019.51 2.211.764 3.578.764zm20.895-.753v-1.54c0-.276-.224-.5-.5-.5H41.57V2.994c0-.81-.183-1.45-.548-1.919-.365-.469-1.193-.75-2.483-.846v16.227c0 .276.224.5.5.5h9.398c.276 0 .5-.224.5-.5zm8.341 0V2.769h5.17V.229H49.103c-.022.769.136 1.365.474 1.788.339.424.856.674 1.554.752h3.142v13.687c0 .276.223.5.5.5h2.005c.276 0 .5-.224.5-.5zm11.176.5V2.973c.026-.955-.202-1.651-.683-2.088-.48-.438-1.263-.656-2.347-.656v13.777c.032 1.028.353 1.757.96 2.187.608.43 1.298.684 2.07.763zM83.493 17.21c1.34 0 2.482-.21 3.427-.626.944-.416 1.667-.996 2.168-1.74.501-.743.751-1.604.751-2.584 0-.725-.136-1.356-.408-1.895-.272-.54-.641-1-1.107-1.38-.465-.382-.99-.698-1.576-.948-.585-.25-1.194-.45-1.825-.596l-1.569-.392c-.343-.082-.683-.183-1.02-.303-.338-.12-.646-.268-.923-.445-.278-.177-.497-.393-.658-.649-.16-.256-.24-.558-.24-.907.005-.419.127-.792.367-1.119.24-.326.585-.585 1.037-.776.452-.19.994-.285 1.625-.285.899 0 1.63.198 2.193.596.564.397.884.953.96 1.666h2.916c-.017-.942-.28-1.776-.792-2.503-.512-.727-1.216-1.296-2.112-1.707C85.811.206 84.77 0 83.583 0c-1.17 0-2.219.206-3.144.617-.926.41-1.657.987-2.193 1.727-.537.74-.805 1.604-.805 2.59 0 1.197.399 2.157 1.197 2.878.797.722 1.885 1.26 3.263 1.613l1.903.49c.599.153 1.123.326 1.572.52.45.192.799.432 1.05.718.25.286.378.646.383 1.082-.005.48-.15.897-.433 1.254-.283.356-.673.634-1.172.833-.498.199-1.076.298-1.735.298-.632 0-1.202-.095-1.711-.286-.51-.19-.922-.479-1.238-.866-.316-.386-.495-.87-.539-1.453H77c.044 1.11.334 2.052.87 2.826.536.773 1.282 1.36 2.238 1.764.955.403 2.084.604 3.385.604zm11.454-.595l4.412-13.158 4.417 13.158c.068.204.259.341.474.341h2.168c.276 0 .5-.224.5-.5 0-.057-.01-.113-.028-.166L101.345.562c-.07-.2-.26-.333-.471-.333H97.84c-.212 0-.401.134-.472.334L91.832 16.29c-.091.26.045.546.306.638.053.018.11.028.166.028h2.169c.214 0 .405-.137.474-.341zm17.824.341V9.85h6.95V7.31h-9.98v9.646h3.03zm-2.347-14.899c.374.461.906.699 1.595.712h8.437V.229H109.74c.081.757.31 1.367.684 1.828zm13.872 0c.382.461.923.699 1.625.712h8.095V.229H123.6c.082.757.314 1.367.696 1.828zm10.268 14.899v-2.54h-7.914V9.85h7.285V7.31H123.62v9.646h10.944z" transform="translate(-24 -18) translate(24 18) translate(44 3)"/>
                </g>
                <g transform="translate(-24 -18) translate(24 18)">
                    <path fill="#000" d="M28 0c3.314 0 6 2.686 6 6v16c0 1.538-.578 2.94-1.53 4.002l.01-.002-.083.082c-.101.11-.207.215-.317.317l-5.594 5.592C25.38 33.224 23.78 34 22 34H6c-3.314 0-6-2.686-6-6V12c0-1.783.778-3.384 2.012-4.483H2.01l5.525-5.524C8.632.77 10.226 0 12 0h16z"/>
                    <rect width="21.722" height="21.722" x="2.833" y="9.444" fill="#FFF" rx="5"/>
                    <path fill="#000" d="M19.833 14.168v11.876c0 .221-.179.4-.4.4h-1.235c-.22 0-.4-.179-.4-.4V18.01h-.108l-3.137 8.142c-.06.155-.207.256-.373.256h-1.225c-.05 0-.101-.01-.148-.028-.205-.082-.305-.315-.223-.52l3.851-9.636c.388-.758.843-1.294 1.363-1.609.521-.315 1.2-.464 2.035-.447zm-12.277 0c.924.043 1.638.193 2.143.447.505.255.919.78 1.24 1.573l1.928 4.93-1.08 2.33L9.7 17.992H9.59v8.052c0 .221-.179.4-.4.4H7.956c-.221 0-.4-.179-.4-.4z"/>
                </g>
                <text fill="#000" fill-opacity=".87" font-family="Roboto-Regular, Roboto" font-size="8" letter-spacing=".34" transform="translate(-24 -18) translate(24 18)">
                    <tspan x="44" y="31">2020 PARAS | POWERED BY NEAR </tspan>
                </text>
            </g>
        </g>
    </g>
</svg>
